<svg version="1.1" xmlns="http://www.w3.org/2000/svg" xmlns:xlink="http://www.w3.org/1999/xlink" x="0px" y="0px" width="157.24px" height="70px" viewBox="0 0 363.45 161.801" enable-background="new 0 0 363.45 161.801" xml:space="preserve">
  <rect fill="#FFFFFF" width="363.45" height="161.801"/>
  <rect fill="#253B80" width="100" height="161.801"/>
  <g>
  <path fill="#FFFFFF" d="M20.875,76.237c0,3.181,0,6.345,0,9.495s0.051,6.345,0.154,9.585l7.166,0.989v3.69H6.39v-3.69l7.089-0.989c0.102-3.78,0.154-7.605,0.154-11.475c0-3.87,0-7.785,0-11.745v-4.41c0-3.899,0-7.77,0-11.61c0-3.839-0.052-7.709-0.154-11.61l-7.089-0.99v-3.69h20.727c3.236,0,6.087,0.436,8.553,1.305c2.465,0.87,4.507,2.101,6.125,3.69c1.618,1.59,2.837,3.48,3.66,5.67c0.821,2.191,1.233,4.605,1.233,7.245c0,2.52-0.424,4.891-1.271,7.11c-0.848,2.22-2.196,4.185-4.045,5.895s-4.251,3.06-7.204,4.05c-2.955,0.99-6.538,1.485-10.749,1.485H20.875z M21.03,44.017c-0.104,3.901-0.154,7.816-0.154,11.745c0,3.93,0,7.906,0,11.925v4.32h3.699c2.62,0,4.841-0.344,6.665-1.035c1.823-0.689,3.313-1.665,4.469-2.925c1.156-1.26,2.003-2.759,2.542-4.5c0.539-1.739,0.809-3.69,0.809-5.85c0-4.32-1.054-7.68-3.159-10.08c-2.107-2.399-5.497-3.6-10.17-3.6H21.03z"/>
  <path fill="#FFFFFF" d="M93.996,83.977l-0.308,13.05c-2.466,1.561-4.997,2.67-7.59,3.33c-2.594,0.659-5.252,0.989-7.975,0.989c-3.904,0-7.462-0.765-10.671-2.295c-3.211-1.529-5.959-3.689-8.244-6.479c-2.286-2.79-4.059-6.104-5.316-9.945c-1.259-3.839-1.888-8.069-1.888-12.69c0-4.559,0.655-8.775,1.964-12.645c1.31-3.87,3.121-7.2,5.432-9.99s5.059-4.964,8.245-6.525c3.184-1.559,6.677-2.34,10.479-2.34c2.106,0,4.442,0.286,7.012,0.855c2.568,0.571,5.162,1.726,7.782,3.465l0.308,13.14h-4.854l-1.541-10.71c-1.336-0.779-2.646-1.334-3.93-1.665c-1.285-0.329-2.595-0.495-3.93-0.495c-2.569,0-4.983,0.585-7.243,1.755c-2.261,1.17-4.238,2.88-5.933,5.13c-1.695,2.25-3.031,5.056-4.006,8.415c-0.977,3.361-1.464,7.231-1.464,11.61c0,4.38,0.449,8.235,1.348,11.565c0.898,3.33,2.145,6.136,3.737,8.415c1.591,2.281,3.505,4.005,5.74,5.175c2.234,1.17,4.661,1.755,7.281,1.755c1.489,0,3.005-0.193,4.546-0.585c1.541-0.39,3.082-1.004,4.623-1.845l1.541-10.44H93.996z"/>
  </g>
  <g>
  <path fill="#253B80" d="M108.38,99.997v-7.29l2.97-0.27c1.74-0.181,2.61-1.02,2.61-2.521v-41.85l-5.13-0.27v-7.65h25.74c6.719,0,11.954,1.575,15.705,4.725c3.749,3.15,5.625,7.875,5.625,14.175c0,6.3-2.131,11.205-6.391,14.715c-4.261,3.51-9.899,5.265-16.92,5.265h-7.649v13.05l8.64,0.271v7.649H108.38z M124.94,70.297h6.479c8.76,0,13.14-3.569,13.14-10.71c0-4.32-1.125-7.185-3.375-8.595c-2.25-1.409-5.836-2.115-10.755-2.115h-5.489V70.297z"/>
  <path fill="#253B80" d="M204.409,99.997h-42.75v-7.29l2.971-0.27c1.739-0.181,2.609-1.02,2.609-2.521v-41.85l-5.13-0.27v-7.65h41.221v14.94l-9.181,0.63v-3.6c0-1.02-0.15-1.74-0.45-2.16c-0.301-0.419-1.021-0.63-2.159-0.63h-13.32v15.39h20.79v9.18h-20.79v16.83h14.49c1.08,0,1.769-0.225,2.069-0.675c0.3-0.45,0.45-1.184,0.45-2.205v-4.5l9.18,0.63V99.997z"/>
  <path fill="#253B80" d="M211.069,99.997v-7.29l2.971-0.27c1.739-0.181,2.609-1.02,2.609-2.521v-41.85l-5.13-0.27v-7.65h24.66c8.82,0,15.705,2.34,20.655,7.02c4.95,4.68,7.425,11.61,7.425,20.79c0,5.701-0.751,10.665-2.25,14.895c-1.5,4.23-3.541,7.546-6.12,9.945c-5.161,4.801-11.58,7.2-19.26,7.2H211.069z M227.63,48.877v42.48h9.18c5.16,0,9.181-1.859,12.061-5.581c2.88-3.719,4.319-9.119,4.319-16.2c0-13.8-5.85-20.7-17.55-20.7H227.63z"/>
  <path fill="#253B80" d="M276.318,89.467v-41.4l-5.13-0.27v-7.65h21.78v7.29l-2.971,0.27c-1.74,0.18-2.609,1.141-2.609,2.88v41.49l5.13,0.271v7.649h-21.78v-7.29l2.97-0.27c0.9-0.12,1.56-0.375,1.98-0.766C276.107,91.283,276.318,90.547,276.318,89.467z"/>
  <path fill="#253B80" d="M301.608,89.917l14.49-41.94l-5.67-0.54v-7.29h20.609l18.36,51.93h0.09l5.13,0.271v7.649h-23.22v-7.29l3.42-0.27c1.02-0.12,1.71-0.36,2.07-0.721c0.359-0.359,0.389-1.019,0.09-1.979l-1.891-5.58h-21.06l-2.7,7.92l5.4,0.271v7.649h-20.79v-7.29l2.97-0.27C300.168,92.317,301.068,91.479,301.608,89.917z M324.559,50.227l-8.37,25.65h16.74l-8.101-25.65H324.559z"/>
  </g>
  PC PEDIA
</svg>